<svg width="408" height="37" fill="none" xmlns="http://www.w3.org/2000/svg"><g filter="url(#filter0_i_1_2353)"><path fill-rule="evenodd" clip-rule="evenodd" d="M19 25a6 6 0 100-12 6 6 0 000 12z" fill="#ED6A5E"/></g><path d="M24.75 19a5.75 5.75 0 11-11.5 0 5.75 5.75 0 0111.5 0z" stroke="#CE5347" stroke-width=".5"/><g filter="url(#filter1_i_1_2353)"><path fill-rule="evenodd" clip-rule="evenodd" d="M39 25a6 6 0 100-12 6 6 0 000 12z" fill="#F6BE4F"/></g><path d="M44.75 19a5.75 5.75 0 11-11.5 0 5.75 5.75 0 0111.5 0z" stroke="#D6A243" stroke-width=".5"/><g filter="url(#filter2_i_1_2353)"><path fill-rule="evenodd" clip-rule="evenodd" d="M59 25a6 6 0 100-12 6 6 0 000 12z" fill="#62C554"/></g><path d="M64.75 19a5.75 5.75 0 11-11.5 0 5.75 5.75 0 0111.5 0z" stroke="#58A942" stroke-width=".5"/><defs><filter id="filter0_i_1_2353" x="13" y="13" width="12" height="12" filterUnits="userSpaceOnUse" color-interpolation-filters="sRGB"><feFlood flood-opacity="0" result="BackgroundImageFix"/><feBlend in="SourceGraphic" in2="BackgroundImageFix" result="shape"/><feColorMatrix in="SourceAlpha" values="0 0 0 0 0 0 0 0 0 0 0 0 0 0 0 0 0 0 127 0" result="hardAlpha"/><feOffset/><feGaussianBlur stdDeviation="3"/><feComposite in2="hardAlpha" operator="arithmetic" k2="-1" k3="1"/><feColorMatrix values="0 0 0 0 0.92549 0 0 0 0 0.427451 0 0 0 0 0.384314 0 0 0 1 0"/><feBlend in2="shape" result="effect1_innerShadow_1_2353"/></filter><filter id="filter1_i_1_2353" x="33" y="13" width="12" height="12" filterUnits="userSpaceOnUse" color-interpolation-filters="sRGB"><feFlood flood-opacity="0" result="BackgroundImageFix"/><feBlend in="SourceGraphic" in2="BackgroundImageFix" result="shape"/><feColorMatrix in="SourceAlpha" values="0 0 0 0 0 0 0 0 0 0 0 0 0 0 0 0 0 0 127 0" result="hardAlpha"/><feOffset/><feGaussianBlur stdDeviation="3"/><feComposite in2="hardAlpha" operator="arithmetic" k2="-1" k3="1"/><feColorMatrix values="0 0 0 0 0.960784 0 0 0 0 0.768627 0 0 0 0 0.317647 0 0 0 1 0"/><feBlend in2="shape" result="effect1_innerShadow_1_2353"/></filter><filter id="filter2_i_1_2353" x="53" y="13" width="12" height="12" filterUnits="userSpaceOnUse" color-interpolation-filters="sRGB"><feFlood flood-opacity="0" result="BackgroundImageFix"/><feBlend in="SourceGraphic" in2="BackgroundImageFix" result="shape"/><feColorMatrix in="SourceAlpha" values="0 0 0 0 0 0 0 0 0 0 0 0 0 0 0 0 0 0 127 0" result="hardAlpha"/><feOffset/><feGaussianBlur stdDeviation="3"/><feComposite in2="hardAlpha" operator="arithmetic" k2="-1" k3="1"/><feColorMatrix values="0 0 0 0 0.407843 0 0 0 0 0.8 0 0 0 0 0.345098 0 0 0 1 0"/><feBlend in2="shape" result="effect1_innerShadow_1_2353"/></filter></defs></svg>