<svg width="46" height="97" fill="none" xmlns="http://www.w3.org/2000/svg"><path d="M45.707 8.707a1 1 0 000-1.414L39.343.929a1 1 0 10-1.414 1.414L43.586 8l-5.657 5.657a1 1 0 001.414 1.414l6.364-6.364zM45 95C21.252 95 2 75.748 2 52H0c0 24.853 20.147 45 45 45v-2zM2 52C2 28.252 21.252 9 45 9V7C20.147 7 0 27.147 0 52h2z" fill="url(#paint0_linear_397_18975)"/><defs><linearGradient id="paint0_linear_397_18975" x1="45" y1="8" x2="45" y2="96" gradientUnits="userSpaceOnUse"><stop stop-color="#8000FF"/><stop offset="1" stop-color="#8000FF" stop-opacity="0"/></linearGradient></defs></svg>