<svg width="112" height="28" fill="none" xmlns="http://www.w3.org/2000/svg"><path d="M7.373 27.462H0L11.409.384h6.713L29.531 27.46h-7.49l-2.289-5.692H9.662l-2.289 5.693zm7.334-18.424l-2.833 7.193h5.666l-2.833-7.193zm27.577 18.424H35.3V6.614h-8.15V.538h23.323v6.077h-8.188v20.846zm18.294-8c1.371 1.435 3.078 2.153 5.122 2.153 2.018 0 3.713-.718 5.084-2.153 1.37-1.436 2.056-3.257 2.056-5.462 0-2.205-.685-4.026-2.056-5.462-1.371-1.435-3.066-2.153-5.084-2.153-2.044 0-3.751.718-5.122 2.153C59.233 9.948 58.56 11.77 58.56 14c0 2.23.673 4.051 2.018 5.462zm15.367 4.461C73.228 26.641 69.814 28 65.7 28c-4.113 0-7.528-1.359-10.245-4.077-2.716-2.718-4.074-6.026-4.074-9.923 0-3.897 1.358-7.205 4.075-9.923C58.172 1.359 61.586 0 65.7 0s7.528 1.359 10.245 4.077c2.716 2.718 4.074 6.026 4.074 9.923 0 3.897-1.358 7.205-4.074 9.923zm15.411 3.539H84.37V.538h6.946l6.868 10.347L105.093.538H112v26.924h-6.946V11.038l-4.851 7.231h-3.842l-5.005-7.23v16.423z" fill="#8000FF"/></svg>