<svg width="46" height="97" viewBox="0 0 46 97" fill="none" xmlns="http://www.w3.org/2000/svg">
<path d="M45.7071 8.70711C46.0976 8.31658 46.0976 7.68342 45.7071 7.29289L39.3431 0.928932C38.9526 0.538408 38.3195 0.538408 37.9289 0.928932C37.5384 1.31946 37.5384 1.95262 37.9289 2.34315L43.5858 8L37.9289 13.6569C37.5384 14.0474 37.5384 14.6805 37.9289 15.0711C38.3195 15.4616 38.9526 15.4616 39.3431 15.0711L45.7071 8.70711ZM45 95C21.2518 95 2 75.7482 2 52H0C0 76.8528 20.1472 97 45 97V95ZM2 52C2 28.2518 21.2518 9 45 9V7C20.1472 7 0 27.1472 0 52H2Z" fill="url(#paint0_linear_397_18975)"/>
<defs>
<linearGradient id="paint0_linear_397_18975" x1="45" y1="8.00001" x2="45.0001" y2="96" gradientUnits="userSpaceOnUse">
<stop stop-color="#8000FF"/>
<stop offset="1" stop-color="#8000FF" stop-opacity="0"/>
</linearGradient>
</defs>
</svg>
