<svg width="112" height="28" viewBox="0 0 112 28" fill="none" xmlns="http://www.w3.org/2000/svg">
<path d="M7.37305 27.4615H0L11.4088 0.384615H18.1222L29.531 27.4615H22.0415L19.752 21.7692H9.66257L7.37305 27.4615ZM14.7073 9.03846L11.8745 16.2308H17.5401L14.7073 9.03846Z" fill="#8000FF"/>
<path d="M42.2841 27.4615H35.2991V6.61538H27.1499V0.538461H50.472V6.61538H42.2841V27.4615Z" fill="#8000FF"/>
<path d="M60.5778 19.4615C61.949 20.8974 63.6564 21.6154 65.7002 21.6154C67.7181 21.6154 69.4126 20.8974 70.7837 19.4615C72.1548 18.0256 72.8404 16.2051 72.8404 14C72.8404 11.7949 72.1548 9.97436 70.7837 8.53846C69.4126 7.10256 67.7181 6.38461 65.7002 6.38461C63.6564 6.38461 61.949 7.10256 60.5778 8.53846C59.2326 9.94872 58.56 11.7692 58.56 14C58.56 16.2308 59.2326 18.0513 60.5778 19.4615ZM75.9448 23.9231C73.2284 26.641 69.8136 28 65.7002 28C61.5868 28 58.1719 26.641 55.4555 23.9231C52.7391 21.2051 51.3809 17.8974 51.3809 14C51.3809 10.1026 52.7391 6.79487 55.4555 4.07692C58.1719 1.35897 61.5868 0 65.7002 0C69.8136 0 73.2284 1.35897 75.9448 4.07692C78.6612 6.79487 80.0194 10.1026 80.0194 14C80.0194 17.8974 78.6612 21.2051 75.9448 23.9231Z" fill="#8000FF"/>
<path d="M91.3555 27.4615H84.3705V0.538461H91.3167L98.1852 10.8846L105.093 0.538461H112V27.4615H105.054V11.0385L100.203 18.2692H96.3614L91.3555 11.0385V27.4615Z" fill="#8000FF"/>
</svg>
